<svg width="48" height="48" viewBox="0 0 48 48" fill="none" xmlns="http://www.w3.org/2000/svg">
<rect width="48" height="48" rx="24" fill="#F3F4F6"/>
<path d="M26.5 32.3333V29C26.6159 27.9561 26.3166 26.9084 25.6667 26.0833C28.1667 26.0833 30.6667 24.4167 30.6667 21.5C30.7333 20.4583 30.4417 19.4333 29.8333 18.5833C30.0667 17.625 30.0667 16.625 29.8333 15.6667C29.8333 15.6667 29 15.6667 27.3333 16.9167C25.1333 16.5 22.8667 16.5 20.6667 16.9167C19 15.6667 18.1667 15.6667 18.1667 15.6667C17.9167 16.625 17.9167 17.625 18.1667 18.5833C17.5599 19.4299 17.2654 20.4607 17.3333 21.5C17.3333 24.4167 19.8333 26.0833 22.3333 26.0833C22.0083 26.4917 21.7667 26.9583 21.625 27.4583C21.4833 27.9583 21.4417 28.4833 21.5 29V32.3333" stroke="#364153" stroke-width="1.66667" stroke-linecap="round" stroke-linejoin="round"/>
<path d="M21.5 29C17.7416 30.6667 17.3333 27.3333 15.6666 27.3333" stroke="#364153" stroke-width="1.66667" stroke-linecap="round" stroke-linejoin="round"/>
</svg>
