<svg width="48" height="48" viewBox="0 0 48 48" fill="none" xmlns="http://www.w3.org/2000/svg">
<rect width="48" height="48" rx="24" fill="#F3F4F6"/>
<path d="M27.3333 20.6667C28.6593 20.6667 29.9311 21.1935 30.8688 22.1311C31.8065 23.0688 32.3333 24.3406 32.3333 25.6667V31.5H28.9999V25.6667C28.9999 25.2246 28.8243 24.8007 28.5118 24.4882C28.1992 24.1756 27.7753 24 27.3333 24C26.8912 24 26.4673 24.1756 26.1547 24.4882C25.8422 24.8007 25.6666 25.2246 25.6666 25.6667V31.5H22.3333V25.6667C22.3333 24.3406 22.86 23.0688 23.7977 22.1311C24.7354 21.1935 26.0072 20.6667 27.3333 20.6667Z" stroke="#364153" stroke-width="1.66667" stroke-linecap="round" stroke-linejoin="round"/>
<path d="M19.0001 21.5H15.6667V31.5H19.0001V21.5Z" stroke="#364153" stroke-width="1.66667" stroke-linecap="round" stroke-linejoin="round"/>
<path d="M17.3334 19C18.2539 19 19.0001 18.2538 19.0001 17.3333C19.0001 16.4129 18.2539 15.6667 17.3334 15.6667C16.4129 15.6667 15.6667 16.4129 15.6667 17.3333C15.6667 18.2538 16.4129 19 17.3334 19Z" stroke="#364153" stroke-width="1.66667" stroke-linecap="round" stroke-linejoin="round"/>
</svg>
